Coordinates
version=1
nRows=20
nColumns=38
inDegrees=no

Units are S.I. units (second, meters, Newtons, ...)
If the header above contains a line with 'inDegrees', this indicates whether rotational values are in degrees (yes) or radians (no).

endheader
time	pelvis_tilt	pelvis_list	pelvis_rotation	pelvis_tx	pelvis_ty	pelvis_tz	hip_flexion_r	hip_adduction_r	hip_rotation_r	knee_angle_r	ankle_angle_r	subtalar_angle_r	mtp_angle_r	hip_flexion_l	hip_adduction_l	hip_rotation_l	knee_angle_l	ankle_angle_l	subtalar_angle_l	mtp_angle_l	lumbar_extension	lumbar_bending	lumbar_rotation	arm_flex_r	arm_add_r	arm_rot_r	elbow_flex_r	pro_sup_r	wrist_flex_r	wrist_dev_r	arm_flex_l	arm_add_l	arm_rot_l	elbow_flex_l	pro_sup_l	wrist_flex_l	wrist_dev_l
0.74	0.1244	1.44103	-1.59531	0.760506	1.20664	0.940835	0.441927	-0.163988	-0.0802661	1.09965	0.0939567	0	0	-0.210422	0.11966	-0.0226319	0.00388009	0.0631102	0	0	-0.251747	-0.0707539	-0.192157	-0.0320298	-0.233581	0.278675	0.469639	0.940002	0	0	-0.0681236	-0.399909	0.468195	0.70832	1.1408	0	0
0.75	0.106007	1.44363	-1.57013	0.761121	1.19842	0.940899	0.451444	-0.163542	-0.0925029	1.05442	0.104161	0	0	-0.220997	0.115135	-0.0186666	0	0.0662183	0	0	-0.250916	-0.0675727	-0.196665	-0.033908	-0.231969	0.279608	0.472147	0.931939	0	0	-0.0621289	-0.404027	0.4715	0.713157	1.13139	0	0
0.76	0.08124	1.44709	-1.53996	0.76149	1.19053	0.940811	0.461051	-0.15242	-0.0876204	1.0048	0.111756	0	0	-0.228679	0.109956	-0.0157741	0	0.0705646	0	0	-0.250006	-0.0638938	-0.199801	-0.0342557	-0.229064	0.276009	0.472434	0.931565	0	0	-0.0551239	-0.406573	0.470531	0.715501	1.13476	0	0
0.77	0.0624241	1.44942	-1.51507	0.761879	1.18241	0.940596	0.466374	-0.150711	-0.0989352	0.952842	0.120623	0	0	-0.237298	0.105505	-0.012463	0	0.0756678	0	0	-0.24977	-0.0612212	-0.203613	-0.0349266	-0.225806	0.272129	0.47234	0.931029	0	0	-0.0491971	-0.409359	0.468032	0.718902	1.13924	0	0
0.78	0.0455093	1.45131	-1.49197	0.76223	1.17429	0.940251	0.46875	-0.149394	-0.112554	0.898289	0.130033	0	0	-0.245968	0.10115	-0.00801267	0	0.0814981	0	0	-0.250106	-0.0589628	-0.207476	-0.0354624	-0.222559	0.268838	0.472096	0.931266	0	0	-0.043759	-0.412328	0.464207	0.723426	1.14437	0	0
0.79	0.0225519	1.45196	-1.46328	0.762479	1.16625	0.939899	0.467226	-0.146102	-0.126151	0.839095	0.136784	0	0	-0.255015	0.095843	-0.00491675	0	0.0888235	0	0	-0.252098	-0.0560617	-0.209632	-0.0352688	-0.216	0.246006	0.467577	0.959457	0	0	-0.0358696	-0.41873	0.476685	0.732022	1.09707	0	0
0.8	0.00804499	1.45451	-1.44461	0.762592	1.15825	0.939168	0.467163	-0.142172	-0.135732	0.77922	0.144899	0	0	-0.261611	0.0922516	-0.00305378	0	0.0960616	0	0	-0.252141	-0.0546154	-0.211377	-0.0351097	-0.214233	0.247485	0.46781	0.957107	0	0	-0.0297456	-0.419808	0.469164	0.733792	1.11365	0	0
0.81	-0.0223751	1.45547	-1.41112	0.762558	1.15039	0.938543	0.46072	-0.13278	-0.141233	0.709872	0.148566	0	0	-0.269506	0.0866328	-0.00178861	0	0.104011	0	0	-0.254285	-0.051099	-0.211318	-0.034223	-0.212865	0.248817	0.467846	0.956076	0	0	-0.0225445	-0.420042	0.461683	0.734739	1.12789	0	0
0.82	-0.0443726	1.45592	-1.38661	0.762421	1.14229	0.937741	0.453211	-0.126201	-0.153166	0.641977	0.151762	0	0	-0.279144	0.0819848	0.000417422	0	0.112007	0	0	-0.256604	-0.0488909	-0.210453	-0.0339334	-0.211644	0.249057	0.468026	0.955816	0	0	-0.0157763	-0.420574	0.454818	0.736105	1.13983	0	0
0.83	-0.0668838	1.45616	-1.36294	0.7621	1.13409	0.936837	0.443687	-0.118224	-0.165444	0.571576	0.153187	0	0	-0.289903	0.0773855	0.00180563	0	0.119659	0	0	-0.258894	-0.0469475	-0.207906	-0.0337506	-0.210533	0.247744	0.467845	0.95581	0	0	-0.00855091	-0.420832	0.449255	0.736295	1.14935	0	0
0.84	-0.0861428	1.45658	-1.34385	0.761617	1.12573	0.935778	0.433344	-0.109534	-0.176927	0.500458	0.152386	0	0	-0.301351	0.0734453	0.00133446	0	0.127107	0	0	-0.260703	-0.0457226	-0.204183	-0.0334448	-0.209406	0.246449	0.466979	0.956584	0	0	-0.0012675	-0.420865	0.444837	0.735221	1.15643	0	0
0.85	-0.102813	1.45557	-1.33045	0.761052	1.11765	0.934744	0.421528	-0.102327	-0.189631	0.430223	0.151259	0	0	-0.304711	0.0726938	0.00181932	0	0.134042	0	0	-0.264401	-0.0444457	-0.198623	-0.0316759	-0.208824	0.247275	0.465552	0.958879	0	0	0.00577907	-0.42046	0.441031	0.733476	1.16114	0	0
0.86	-0.112644	1.45661	-1.32222	0.760265	1.10914	0.933365	0.40983	-0.0915388	-0.196116	0.359361	0.145468	0	0	-0.314494	0.0701902	-0.0011716	0	0.141671	0	0	-0.265433	-0.045012	-0.19401	-0.0304505	-0.207527	0.247467	0.46297	0.9612	0	0	0.0124753	-0.420576	0.437569	0.731599	1.16366	0	0
0.87	-0.106601	1.45818	-1.3296	0.759777	1.10054	0.931804	0.389186	-0.0847081	-0.171877	0.274797	0.134131	0	0	-0.324358	0.0700889	-0.00387204	0	0.148797	0	0	-0.266096	-0.0469718	-0.190169	-0.0289111	-0.206747	0.246576	0.460201	0.963973	0	0	0.0187923	-0.419936	0.43415	0.729124	1.16527	0	0
0.88	-0.116469	1.46099	-1.32318	0.758719	1.09172	0.930075	0.374038	-0.0716835	-0.163502	0.198855	0.118213	0	0	-0.33242	0.0685484	-0.0137025	0	0.161897	0	0	-0.264638	-0.0487833	-0.182174	-0.0278541	-0.199044	0.210536	0.452258	0.989119	0	0	0.0288085	-0.428142	0.467208	0.734465	1.07354	0	0
0.89	-0.107382	1.46	-1.33493	0.757827	1.08275	0.928604	0.358355	-0.0619364	-0.162302	0.137829	0.109689	0	0	-0.345649	0.0677538	-0.0140245	0	0.163797	0	0	-0.267359	-0.0509444	-0.178461	-0.0251857	-0.20022	0.223279	0.450097	0.992959	0	0	0.03217	-0.425528	0.453114	0.729996	1.09205	0	0
0.9	-0.102468	1.46104	-1.3429	0.756853	1.07355	0.926833	0.341816	-0.0517351	-0.152969	0.0747934	0.0917252	0	0	-0.356535	0.0671275	-0.0176784	0	0.171842	0	0	-0.267406	-0.0532792	-0.174438	-0.0230742	-0.200131	0.228952	0.447906	0.993657	0	0	0.0355029	-0.423806	0.442689	0.725585	1.11086	0	0
0.91	-0.0941564	1.46229	-1.35353	0.755986	1.06412	0.924959	0.326486	-0.0431944	-0.143937	0.0207984	0.0721284	0	0	-0.367391	0.0667138	-0.020612	0	0.180665	0	0	-0.266999	-0.055723	-0.171036	-0.0215564	-0.199635	0.23131	0.445799	0.993683	0	0	0.0385998	-0.42277	0.435554	0.721701	1.12554	0	0
0.92	-0.0842206	1.46183	-1.36566	0.755246	1.05471	0.92318	0.320579	-0.0370821	-0.142733	0	0.0587944	0	0	-0.379985	0.066109	-0.0225446	0	0.18916	0	0	-0.268583	-0.0573819	-0.168366	-0.0197	-0.19926	0.232657	0.444037	0.993828	0	0	0.041239	-0.421813	0.430166	0.718325	1.13507	0	0
0.93	-0.0752715	1.46138	-1.37647	0.754614	1.04521	0.921427	0.321641	-0.032209	-0.153214	0	0.0576247	0	0	-0.392408	0.0653764	-0.0241429	0	0.197481	0	0	-0.270352	-0.0584595	-0.166499	-0.0173638	-0.198978	0.233797	0.442489	0.994104	0	0	0.0434018	-0.420509	0.424761	0.714803	1.14339	0	0
